<?xml version="1.0" encoding="UTF-8"?>
<svg id="Layer_1" data-name="Layer 1" xmlns="http://www.w3.org/2000/svg" xmlns:xlink="http://www.w3.org/1999/xlink" viewBox="0 0 339 324">
  <defs>
    <style>
      .cls-1 {
        fill: url(#linear-gradient-2);
      }

      .cls-2 {
        fill: #97cc1a;
      }

      .cls-3 {
        fill: #2ac64b;
      }

      .cls-4 {
        fill: url(#linear-gradient-6);
      }

      .cls-5 {
        fill: #06cbf6;
      }

      .cls-6 {
        fill: #008a5a;
      }

      .cls-7 {
        fill: #009a37;
      }

      .cls-8 {
        fill: url(#linear-gradient-10);
      }

      .cls-9 {
        fill: url(#linear-gradient-5);
      }

      .cls-10 {
        fill: #fff;
        stroke: #000;
        stroke-miterlimit: 10;
      }

      .cls-11 {
        fill: url(#linear-gradient-7);
      }

      .cls-12 {
        fill: #666565;
      }

      .cls-13 {
        fill: #009550;
      }

      .cls-14 {
        fill: url(#linear-gradient-9);
      }

      .cls-15 {
        fill: url(#linear-gradient-3);
      }

      .cls-16 {
        fill: #00863f;
      }

      .cls-17 {
        fill: url(#linear-gradient);
      }

      .cls-18 {
        fill: #00983e;
      }

      .cls-19 {
        fill: url(#linear-gradient-4);
      }

      .cls-20 {
        fill: url(#linear-gradient-8);
      }
    </style>
    <linearGradient id="linear-gradient" x1="-48034.88" y1="-19353.44" x2="-47727.01" y2="-19344.11" gradientTransform="translate(12293.86 4987.61) scale(.25)" gradientUnits="userSpaceOnUse">
      <stop offset="0" stop-color="#0288f7"/>
      <stop offset="1" stop-color="#2ee2bd"/>
    </linearGradient>
    <linearGradient id="linear-gradient-2" x1="-48011.32" y1="-18899.64" x2="-48087.05" y2="-19086.91" gradientTransform="translate(12293.86 4987.61) scale(.25)" gradientUnits="userSpaceOnUse">
      <stop offset="0" stop-color="#cb1918"/>
      <stop offset=".39" stop-color="#a2183d"/>
      <stop offset=".75" stop-color="#902869"/>
      <stop offset="1" stop-color="#73358a"/>
    </linearGradient>
    <linearGradient id="linear-gradient-3" x1="-48049.6" y1="-18884.16" x2="-48125.33" y2="-19071.44" xlink:href="#linear-gradient-2"/>
    <linearGradient id="linear-gradient-4" x1="-47944.46" y1="-18926.68" x2="-48020.2" y2="-19113.96" xlink:href="#linear-gradient-2"/>
    <linearGradient id="linear-gradient-5" x1="-47788.82" y1="-19032.7" x2="-47898.72" y2="-18912.65" gradientTransform="translate(12293.86 4987.61) scale(.25)" gradientUnits="userSpaceOnUse">
      <stop offset="0" stop-color="#add816"/>
      <stop offset="1" stop-color="#dbd704"/>
    </linearGradient>
    <linearGradient id="linear-gradient-6" x1="-47871.93" y1="-18802.03" x2="-47965.48" y2="-18959.79" gradientTransform="translate(12293.86 4987.61) scale(.25)" gradientUnits="userSpaceOnUse">
      <stop offset="0" stop-color="#e1282b"/>
      <stop offset=".39" stop-color="#e3402a"/>
      <stop offset=".7" stop-color="#e76226"/>
      <stop offset="1" stop-color="#f19a0a"/>
    </linearGradient>
    <linearGradient id="linear-gradient-7" x1="-47865.93" y1="-18805.59" x2="-47959.48" y2="-18963.35" xlink:href="#linear-gradient-6"/>
    <linearGradient id="linear-gradient-8" x1="-47881.84" y1="-18793.02" x2="-47975.39" y2="-18950.78" xlink:href="#linear-gradient-6"/>
    <linearGradient id="linear-gradient-9" x1="-47933.43" y1="-18765.57" x2="-48026.98" y2="-18923.33" xlink:href="#linear-gradient-6"/>
    <linearGradient id="linear-gradient-10" x1="-47950.71" y1="-18755.32" x2="-48044.26" y2="-18913.08" xlink:href="#linear-gradient-6"/>
  </defs>
  <rect x="49.52" y="51.74" width="255.48" height="251.78" rx="24.86" ry="24.86"/>
  <rect class="cls-10" x="42.11" y="44.34" width="255.48" height="251.78" rx="30.37" ry="30.37"/>
  <g>
    <g>
      <path class="cls-3" d="M111.91,141.49c-2.16-.98-4.03-1.74-5.56-2.31-.32-2.4-.56-4.8-.7-7.22-.12-1.99-.04-3.95,.19-5.87,1.3,.21,3.14,.53,5.42,.98-.22,2.73-.25,5.6,0,8.64,.15,1.94,.37,3.87,.64,5.79Zm21.35,12.6c-5.46-4.01-10.59-7.11-15.04-9.49-.9-5.55-1.29-11.05-.95-16.29,4.12,.91,8.99,2.08,14.35,3.57-.35,7,.3,14.54,1.65,22.21h0Zm56.07,2.92c-.05,.6-.12,1.22-.19,1.83-7.46,3.89-14.88,9.15-21.56,16.22-2.16,2.29-4.12,4.58-5.92,6.87-2.02-2.55-4.17-5.14-6.46-7.74-1.03-1.16-2.05-2.29-3.09-3.39-1.71-11.49-2.8-22.82-3.01-33.44,13.28,4.71,27.61,11.11,40.22,19.63Z"/>
      <path class="cls-6" d="M113.54,115.9c-1.12,3.39-1.93,7.11-2.27,11.16-2.29-.44-4.12-.76-5.42-.98,.14-1.21,.36-2.41,.64-3.59,1.63-1.75,3.99-4.07,7.06-6.59Z"/>
      <path class="cls-13" d="M139.52,101.27c-3.93,7.2-7.07,16.91-7.87,29.86-.01,.25-.03,.51-.04,.76-5.36-1.49-10.23-2.66-14.34-3.57,0-.18,.02-.34,.03-.52,.51-6.79,2.52-13.02,5.55-18.55,4.69-2.89,10.24-5.7,16.67-7.98Z"/>
      <path class="cls-18" d="M189.34,157.01c-12.61-8.53-26.95-14.92-40.22-19.63-.26-12.65,.73-24.28,3.34-33.92,.07-.27,.14-.53,.22-.79,10.53,6.22,24.25,13.16,37.27,16.21,1.14,11.49,.8,24.54-.61,38.13h0Z"/>
      <path class="cls-7" d="M234.05,131.96c-.32,5.34-1.08,10.63-2.27,15.92-1.5,.06-3.23,.15-5.15,.32,.84-4.08,1.46-8.25,1.81-12.5,1.14-14.3-3.48-25.18-8.82-32.79,1.57,.44,3.05,.88,4.43,1.31,6,7.61,10.63,17.38,10,27.73Zm-13.35,16.93c-4.18,.6-8.91,1.53-13.89,2.96,1.14-7.17,1.64-14.18,1.24-20.72-.91-14.91-4.95-25.52-9.7-32.96,4.47,.74,8.7,1.61,12.61,2.52,6.23,7.36,10.65,16.55,11.44,27.11,.5,6.73-.22,13.91-1.7,21.09Z"/>
      <path class="cls-16" d="M189.95,118.88c-13.02-3.05-26.74-9.99-37.27-16.21,.56-1.93,1.18-3.68,1.86-5.27,1.93-.33,3.92-.6,5.96-.81,8.23-.84,16.44-.76,24.27-.12,.92,2.04,1.77,4.35,2.48,6.98,1.27,4.7,2.16,9.88,2.7,15.42Z"/>
      <path class="cls-5" d="M133.72,89.53c-.43,.27-14.42,8.88-20.18,26.36-3.07,2.53-5.43,4.85-7.05,6.59,3.8-16.5,18.99-29.97,27.23-32.96Zm8.85,6.81c-1.05,1.5-2.08,3.14-3.05,4.93-6.43,2.28-11.99,5.09-16.67,7.98,3.58-6.58,8.62-12.18,14.3-16.63,1.35,.96,3.19,2.24,5.42,3.72Z"/>
      <path class="cls-17" d="M224.05,104.23c-1.38-.43-2.87-.87-4.43-1.31-6.31-8.99-13.64-13.39-13.64-13.39,4.86,1.76,12.14,7.17,18.07,14.7Zm-13.08-3.54c-3.91-.91-8.14-1.78-12.61-2.52-8.01-12.59-18.08-16.16-18.57-16.33,10.79,2.16,22.68,8.81,31.18,18.85Zm-26.2-4.2c-7.82-.65-16.04-.72-24.27,.12-2.05,.21-4.03,.48-5.96,.81,5.78-13.62,15.18-15.57,15.18-15.57h.27s8.98,1.86,14.78,14.65Zm-24.84-14.64c-.46,.16-9.57,3.39-17.35,14.5-2.23-1.47-4.08-2.75-5.42-3.71,7.09-5.55,15.2-9.27,22.77-10.79h0Z"/>
      <path class="cls-12" d="M169.85,258.62h9.81l3.63-15.83h-26.87l3.63,15.83h9.81Z"/>
    </g>
    <path class="cls-1" d="M133.36,188.8c1.86,3.84,3.63,7.27,5.16,10.13,2.62,4.9,5.11,9.07,7.68,12.86,.74-2.6,1.67-5.34,2.82-8.18-1.99-4.57-3.99-9.48-5.89-14.59-4.14-11.11-7.81-23.19-9.86-34.93-5.46-4-10.59-7.11-15.04-9.49,2.55,15.8,9.26,32.06,15.13,44.19h0Z"/>
    <path class="cls-15" d="M124.63,188.6c1.05,1.84,2.15,3.69,3.28,5.55,5.3,8.7,11.43,16.73,16.89,23.26,.16-.79,.35-1.61,.56-2.44-2.21-3.03-4.36-6.11-6.21-8.97-2.66-4.09-6.5-10.01-10.5-17.3-6.86-12.51-14.18-29.04-16.73-47.21-2.16-.98-4.03-1.74-5.55-2.31,2.2,16.28,8.42,32.26,18.27,49.42h0Z"/>
    <path class="cls-19" d="M153.08,176.88c.69,4.11,1.5,8.29,2.37,12.42,.09,.4,.17,.79,.25,1.18,1.74-2.82,3.72-5.67,5.97-8.54-2.08-2.63-4.24-5.21-6.46-7.74-1.03-1.16-2.05-2.29-3.09-3.38,.3,2.01,.62,4.03,.96,6.06Z"/>
    <path class="cls-2" d="M226.62,148.2c-2.46,11.93-6.78,22.99-11.39,32.44,.93,.93,1.84,1.87,2.72,2.79,6.56-12.2,11.22-23.86,13.83-35.55-1.51,.06-3.23,.15-5.16,.32Zm-19.81,3.65c-.9,5.7-2.2,11.5-3.77,17.26,2.71,2.45,5.68,5.19,8.6,8,3.65-8.71,7.06-18.47,9.07-28.21-4.19,.6-8.91,1.54-13.89,2.96h0Z"/>
    <path class="cls-9" d="M167.59,175.07c-2.16,2.29-4.12,4.58-5.92,6.88,7.85,9.92,13.68,19.34,17.91,27.23,1.53-5.93,3.13-12.5,4.55-19.22,.92-4.34,1.77-8.73,2.5-13.07,1.02-6.05,1.87-12.09,2.52-18.04-7.46,3.89-14.88,9.14-21.56,16.22Zm47.64,5.58c-.18,.36-.35,.72-.53,1.08-5.21,10.51-10.68,18.95-14.14,24.28-3.99,6.15-9.37,13.35-13.63,18.86,.15,.41,.3,.79,.44,1.15,6.6-7.19,16.44-18.78,24.42-31.86,2-3.29,3.87-6.52,5.62-9.72,.18-.33,.36-.66,.54-1-.88-.92-1.79-1.85-2.72-2.79h0Zm-12.19-11.54l-.21,.75c-5.06,18.27-12.76,35.96-18.86,48.15,.66,1.45,1.27,2.8,1.8,4.04,5.63-6.7,10.27-13.48,15.42-23.11,2.83-5.3,6.49-12.52,9.99-20.74l.46-1.09c-2.92-2.81-5.88-5.55-8.6-8Z"/>
    <path class="cls-4" d="M174.93,233.9c4.11-4.26,7.63-8.05,10.83-11.86-.53-1.24-1.13-2.59-1.8-4.04-4.32,8.64-7.84,14.52-9.04,15.9Z"/>
    <path class="cls-11" d="M179.99,233.64c.22-.21,3.14-3.02,7.39-7.64-.14-.36-.29-.74-.44-1.15-3.81,4.94-6.72,8.52-6.95,8.79Z"/>
    <path class="cls-20" d="M155.7,191.27c4.86,22.74,11.53,43.6,11.53,43.6h5.26s3.38-10.59,7.09-24.91c-4.23-7.89-10.06-17.31-17.91-27.23-2.25,2.87-4.23,5.73-5.97,8.54Z"/>
    <path class="cls-14" d="M146.19,211.79c5.32,7.89,10.91,14.17,18.58,22.11-1.78-2.04-8.7-14.06-15.75-30.29-1.15,2.84-2.08,5.58-2.82,8.17h0Z"/>
    <path class="cls-8" d="M144.8,217.4c8.02,9.6,14.59,15.92,14.93,16.24-.35-.44-7.59-9.34-14.37-18.68-.2,.83-.39,1.65-.56,2.44Z"/>
  </g>
</svg>