<?xml version="1.0" encoding="UTF-8"?>
<svg id="Layer_1" data-name="Layer 1" xmlns="http://www.w3.org/2000/svg" viewBox="0 0 339 324">
  <defs>
    <style>
      .cls-1 {
        fill: #ea7600;
      }

      .cls-2 {
        fill: #005f9e;
      }

      .cls-3 {
        fill: #fff;
        stroke: #000;
        stroke-miterlimit: 10;
      }
    </style>
  </defs>
  <g>
    <rect x="45.46" y="39.81" width="255.48" height="251.78" rx="26.74" ry="26.74"/>
    <rect class="cls-3" x="38.06" y="32.41" width="255.48" height="251.78" rx="27.17" ry="27.17"/>
  </g>
  <g>
    <path class="cls-1" d="M120.37,179.49c-.22,.03-.33,.17-.46,.28-8.14,6.67-16.28,13.35-24.42,20.02-4.62,3.79-9.24,7.58-13.87,11.37-2.43,1.99-5.18,3.32-8.28,3.89-2.64,.48-5.25,.38-7.73-.7-4.06-1.76-6.22-4.89-6.41-9.32-.13-2.93,.8-5.59,2.32-8.06,1.22-1.98,2.79-3.62,4.63-5.03,10.91-8.34,21.82-16.68,32.74-25.03,9.36-7.15,18.71-14.31,28.07-21.46,3.43-2.62,6.86-5.25,10.29-7.88,.11-.08,.25-.13,.29-.3-.1-.1-.23-.05-.34-.05-7.64,0-15.27,.02-22.91,.04-5.34,.01-10.69,.04-16.03,.04-1.92,0-3.8-.25-5.57-1.04-1.68-.76-3.09-1.85-4.03-3.46-1.24-2.12-1.29-4.35-.5-6.63,.69-1.99,1.93-3.6,3.52-4.94,2.41-2.03,5.19-3.21,8.32-3.62,.7-.09,1.41-.11,2.11-.11,3.16,0,6.31-.01,9.47-.01,22.78-.02,45.57-.05,68.35-.07,.21,0,.42,0,.63,0,.08-.19-.08-.22-.16-.29-5.31-4.32-10.61-8.63-15.92-12.95-3.09-2.51-6.19-5.03-9.27-7.55-.61-.5-1.19-1.05-1.67-1.68-1.82-2.41-1.81-5.48,.03-8.01,1.25-1.72,2.93-2.89,4.9-3.64,3.61-1.37,7.23-1.39,10.81,.15,.78,.34,1.49,.8,2.16,1.31,8.5,6.53,17,13.06,25.5,19.6,10.74,8.25,21.48,16.5,32.21,24.75,2.24,1.72,4.5,3.41,6.65,5.23,8.12,6.89,14.19,15.25,18.04,25.19,1.49,3.84,2.53,7.8,3.16,11.87,.54,3.48,.79,6.97,.7,10.49-.14,5.41-1.04,10.69-2.66,15.85-2.71,8.62-7.19,16.21-13.24,22.89-7.48,8.24-16.51,14.18-26.88,18.15-4.62,1.77-9.38,3.03-14.27,3.81-3.01,.49-6.04,.77-9.1,.9-2.44,.1-4.87,.09-7.3-.06-14.4-.88-27.54-5.34-39.19-13.93-7.59-5.59-13.73-12.49-18.28-20.76-2.45-4.45-4.33-9.13-5.5-14.09-.62-2.64-1.02-5.32-1.26-8.03-.16-1.79,.07-3.54,.2-5.31,.04-.61,.18-1.21,.16-1.84Zm68.33,34.06c1.54,0,3.07-.07,4.59-.21,3.45-.33,6.83-1.03,10.11-2.16,7.98-2.73,14.7-7.29,19.85-14,5.97-7.76,8.44-16.54,7.28-26.3-.4-3.31-1.28-6.49-2.62-9.55-2.79-6.37-7.08-11.54-12.66-15.65-6.7-4.93-14.25-7.61-22.51-8.33-2.78-.24-5.56-.22-8.35,.05-2.89,.28-5.72,.8-8.5,1.63-8.01,2.4-14.89,6.61-20.35,12.99-4.94,5.77-7.9,12.41-8.66,20-.3,3.04-.22,6.06,.27,9.07,.75,4.6,2.35,8.88,4.81,12.83,4.35,7,10.35,12.13,17.82,15.57,6,2.76,12.33,4.04,18.92,4.05Z"/>
    <path class="cls-2" d="M188.97,197.92c-6.38-.09-12.08-1.78-17.09-5.53-4.21-3.15-7.22-7.18-8.81-12.22-.63-2.01-.95-4.08-.99-6.18-.11-6.25,2.11-11.61,6.34-16.14,3.85-4.12,8.61-6.68,14.11-7.91,2.84-.64,5.72-.85,8.61-.6,6.92,.59,12.93,3.21,17.83,8.2,3.24,3.3,5.36,7.23,6.24,11.77,1.03,5.3,.21,10.34-2.38,15.07-2.77,5.07-6.92,8.64-12.14,11.02-2.54,1.16-5.22,1.89-7.99,2.25-1.3,.17-2.6,.22-3.73,.27Z"/>
  </g>
</svg>