<?xml version="1.0" encoding="UTF-8"?>
<svg id="Layer_1" data-name="Layer 1" xmlns="http://www.w3.org/2000/svg" viewBox="0 0 339 324">
  <defs>
    <style>
      .cls-1 {
        fill: #fdfdfd;
      }

      .cls-2 {
        fill: #001e36;
      }

      .cls-3 {
        fill: #31a7fe;
      }
    </style>
  </defs>
  <path class="cls-2" d="M255.31,285.89H83.15c-.17-.38-.53-.24-.81-.27-2.27-.3-4.53-.64-6.73-1.31-17.21-5.23-27.95-16.57-32.22-34.06-.39-1.6-.28-3.29-.97-4.82V78.84c.35-.11,.25-.42,.28-.66,.29-2.14,.64-4.26,1.21-6.35,5.51-20.05,22.93-33.43,43.71-33.44,54.51-.03,109.02,0,163.52-.01,3.58,0,7.12,.38,10.6,1.22,20.25,4.91,34.46,22.55,34.5,43.39,.1,52.79,.04,105.57,.02,158.36,0,1.63-.11,3.26-.29,4.88-2.2,19.06-16.36,34.6-35.2,38.64-1.82,.39-3.65,.68-5.48,1.02ZM99.55,157.5c0,17.93,0,35.86,0,53.8,0,1.81,.25,2.06,2.05,2.06,6.3,0,12.6,0,18.9,0,1.63,0,2.02-.4,2.02-2.03,0-4.19,0-8.37,0-12.56,0-6.52,.03-13.04-.03-19.56,0-1.07,.32-1.37,1.34-1.29,1.32,.1,2.64,.09,3.96,.12,8.44,.22,16.83-.05,25.01-2.43,10.21-2.97,18.18-8.82,22.97-18.46,3.59-7.24,4.34-15.02,3.39-22.94-1.5-12.5-7.83-21.78-19.08-27.53-7.61-3.89-15.85-5.18-24.3-5.32-11.37-.19-22.73,.44-34.09,.57-2.08,.02-2.14,.08-2.14,2.17,0,17.8,0,35.6,0,53.4Zm91.27,42.22c0,2.07-.03,4.14,0,6.21,.07,4.4-.94,4.18,4.34,6.17,5.7,2.14,11.67,2.98,17.71,3.33,7.08,.41,14.11,.04,20.88-2.3,10.73-3.71,17.47-10.83,18.47-22.51,.67-7.73-1.77-14.33-7.78-19.42-3.5-2.96-7.57-4.97-11.67-6.91-4.73-2.23-9.81-3.66-14.43-6.17-1.52-.83-2.97-1.73-4.1-3.06-1.96-2.32-1.37-5.62,1.25-7.16,.69-.41,1.45-.62,2.22-.81,3.17-.8,6.39-.74,9.59-.45,6.25,.58,12.36,1.76,18.03,4.68,1.66,.85,2.61,.18,2.61-1.67,0-4.71,0-9.43,0-14.14,0-4.32,.02-4.38-4.18-5.6-7.4-2.15-14.99-2.53-22.63-2.24-5.83,.22-11.39,1.47-16.62,4.21-14.95,7.83-18.44,28.25-5.57,39.59,3.84,3.39,8.31,5.76,12.94,7.84,3.81,1.71,7.82,2.96,11.58,4.8,1.63,.8,3.23,1.64,4.48,2.99,2.49,2.68,1.77,6.29-1.56,7.83-1.95,.9-4.05,1.23-6.16,1.31-9.76,.37-18.97-1.68-27.54-6.44-1.35-.75-1.83-.49-1.84,1.07-.02,2.95,0,5.9,0,8.86Z"/>
  <path class="cls-1" d="M255.31,285.89c1.83-.34,3.66-.63,5.48-1.02,18.84-4.05,32.99-19.59,35.2-38.64,.19-1.62,.29-3.25,.29-4.88,.02-52.79,.08-105.57-.02-158.36-.04-20.83-14.25-38.47-34.5-43.39-3.48-.84-7.02-1.22-10.6-1.22-54.51,0-109.02-.02-163.52,.01-20.78,.01-38.2,13.4-43.71,33.44-.57,2.08-.92,4.21-1.21,6.35-.03,.24,.06,.55-.28,.66,0-13.26,0-26.53-.02-39.79,0-.76,.12-.96,.94-.96,84.08,.02,168.15,.03,252.23-.01,1.08,0,1,.42,1,1.16-.01,81.87-.01,163.73,.02,245.6,0,.92-.21,1.07-1.09,1.07-13.4-.04-26.79-.02-40.19-.02Z"/>
  <path class="cls-1" d="M42.43,245.43c.69,1.53,.58,3.23,.97,4.82,4.27,17.49,15.02,28.82,32.22,34.06,2.19,.67,4.46,1.01,6.73,1.31,.28,.04,.64-.11,.81,.27-13.27,0-26.53,0-39.8,.02-.79,0-.95-.16-.95-.95,.03-13.18,.02-26.35,.02-39.53Z"/>
  <path class="cls-3" d="M99.55,157.5c0-17.8,0-35.6,0-53.4,0-2.09,.07-2.15,2.14-2.17,11.37-.13,22.72-.77,34.09-.57,8.44,.14,16.68,1.43,24.3,5.32,11.25,5.75,17.58,15.03,19.08,27.53,.95,7.92,.2,15.7-3.39,22.94-4.79,9.65-12.76,15.5-22.97,18.46-8.18,2.38-16.57,2.65-25.01,2.43-1.32-.03-2.65-.02-3.96-.12-1.01-.08-1.35,.22-1.34,1.29,.05,6.52,.03,13.04,.03,19.56,0,4.19,0,8.37,0,12.56,0,1.63-.39,2.03-2.02,2.03-6.3,0-12.6,0-18.9,0-1.8,0-2.05-.25-2.05-2.06,0-17.93,0-35.86,0-53.8Zm23.04-17.39c0,5.55,0,11.1,0,16.65,0,.53-.2,1.15,.74,1.2,6.79,.36,13.57,.55,20.18-1.42,6.96-2.07,11.88-6.09,12.75-13.78,.58-5.05-.02-9.86-3.39-13.97-3.36-4.1-8.03-5.58-12.99-6.27-5.39-.76-10.82-.17-16.23-.27-1.02-.02-1.09,.54-1.08,1.34,.02,5.51,.01,11.01,.01,16.52Z"/>
  <path class="cls-3" d="M190.82,199.72c0-2.95-.01-5.9,0-8.86,.01-1.56,.49-1.82,1.84-1.07,8.57,4.75,17.78,6.81,27.54,6.44,2.12-.08,4.21-.41,6.16-1.31,3.33-1.54,4.05-5.15,1.56-7.83-1.25-1.35-2.85-2.19-4.48-2.99-3.76-1.84-7.76-3.09-11.58-4.8-4.63-2.08-9.1-4.46-12.94-7.84-12.86-11.34-9.38-31.77,5.57-39.59,5.23-2.74,10.79-3.98,16.62-4.21,7.64-.29,15.24,.09,22.63,2.24,4.2,1.22,4.18,1.28,4.18,5.6,0,4.71,0,9.43,0,14.14,0,1.85-.95,2.53-2.61,1.67-5.67-2.91-11.78-4.1-18.03-4.68-3.2-.3-6.43-.36-9.59,.45-.77,.19-1.53,.4-2.22,.81-2.61,1.54-3.2,4.84-1.25,7.16,1.13,1.33,2.58,2.24,4.1,3.06,4.62,2.51,9.7,3.94,14.43,6.17,4.1,1.93,8.18,3.95,11.67,6.91,6.01,5.09,8.45,11.69,7.78,19.42-1.01,11.67-7.74,18.79-18.47,22.51-6.76,2.34-13.8,2.72-20.88,2.3-6.04-.35-12.01-1.19-17.71-3.33-5.28-1.99-4.26-1.77-4.34-6.17-.03-2.07,0-4.14,0-6.21Z"/>
  <path class="cls-2" d="M122.59,140.1c0-5.51,.01-11.01-.01-16.52,0-.81,.06-1.36,1.08-1.34,5.41,.1,10.85-.48,16.23,.27,4.96,.7,9.64,2.17,12.99,6.27,3.37,4.11,3.96,8.92,3.39,13.97-.88,7.69-5.8,11.71-12.75,13.78-6.62,1.97-13.39,1.79-20.18,1.42-.95-.05-.74-.66-.74-1.2,0-5.55,0-11.1,0-16.65Z"/>
</svg>