<?xml version="1.0" encoding="UTF-8"?>
<svg id="Layer_1" data-name="Layer 1" xmlns="http://www.w3.org/2000/svg" viewBox="0 0 339 324">
  <defs>
    <style>
      .cls-1 {
        fill: #99f;
      }

      .cls-2 {
        fill: #00005b;
      }
    </style>
  </defs>
  <path class="cls-2" d="M45.46,127.74c0-31.43,0-47.14,6.12-59.14,5.38-10.56,13.96-19.14,24.52-24.52,12-6.12,27.72-6.12,59.14-6.12h68.52c31.43,0,47.14,0,59.14,6.12,10.56,5.38,19.14,13.96,24.52,24.52,6.12,12,6.12,27.72,6.12,59.14v68.52c0,31.43,0,47.14-6.12,59.14-5.38,10.56-13.96,19.14-24.52,24.52-12,6.12-27.72,6.12-59.14,6.12h-68.52c-31.43,0-47.14,0-59.14-6.12-10.56-5.38-19.14-13.96-24.52-24.52-6.12-12-6.12-27.72-6.12-59.14V127.74Z"/>
  <path class="cls-1" d="M147.83,193.47h-37.59l-7.65,24.42c-.21,.91-1.05,1.55-1.95,1.5h-20.05c-1.11,0-1.5-.62-1.16-1.87l33.24-97.78c.33-1.02,.66-2.02,1-3.33,.43-2.27,.66-4.59,.66-6.9-.1-.68,.5-1.29,1.16-1.19h26.43c.77,0,1.22,.28,1.33,.85l37.73,108.52c.33,1.14,0,1.71-1,1.71h-22.21c-.74,.08-1.45-.42-1.63-1.17l-8.3-24.75Zm-32.02-22.22h26.27c-4.32-14.75-9.19-29.3-13.13-44.16-4.47,15.42-8.6,29.71-13.13,44.16Z"/>
  <path class="cls-1" d="M208.09,182.6c1.53,12.67,12.16,18.7,23.94,18.45,6.64-.13,13.74-1.16,19.94-3.67,.55-.45,.83-.17,.83,.85v16.2c.05,.84-.3,1.6-1,2.05-7.71,3.5-16.57,4.56-24.93,4.43-24.94,0-42.07-17.57-42.06-43.14-.07-24.23,15.65-44.67,40.07-44.67,20.69-.54,35.02,16.03,35.08,36.66,0,3.78-.21,7.56-.67,11.31-.09,.75-.74,1.31-1.49,1.31-16.53,0-33.14,.24-49.71,.24Zm.96-14.35c9.21,0,18.48,.33,27.68-.08,1.38-.14,2.41-.4,2.41-1.84-.19-7.65-6.64-13.93-14.13-13.64-9.05-.56-14.84,7.08-15.96,15.57Z"/>
</svg>